<svg width="100" height="96" viewBox="0 0 100 96" fill="none" xmlns="http://www.w3.org/2000/svg">
<rect width="100" height="96" rx="28" fill="black"/>
<path d="M44.7448 29.1818H46.4181V39.0597C46.4181 39.9413 46.2562 40.6902 45.9323 41.3065C45.6084 41.9227 45.1519 42.3905 44.5626 42.7099C43.9734 43.0292 43.2784 43.1889 42.4778 43.1889C41.7221 43.1889 41.0496 43.0517 40.4604 42.7773C39.8711 42.4985 39.4078 42.1026 39.0704 41.5898C38.7331 41.0771 38.5644 40.4676 38.5644 39.7614H40.2107C40.2107 40.1527 40.3074 40.4946 40.5008 40.7869C40.6988 41.0748 40.9686 41.2997 41.3105 41.4616C41.6524 41.6236 42.0414 41.7045 42.4778 41.7045C42.9591 41.7045 43.3684 41.6033 43.7057 41.4009C44.0431 41.1985 44.2995 40.9016 44.4749 40.5103C44.6548 40.1145 44.7448 39.6309 44.7448 39.0597V29.1818ZM59.2175 33.5C59.069 33.0457 58.8734 32.6386 58.6305 32.2788C58.3921 31.9144 58.1064 31.604 57.7736 31.3477C57.4452 31.0913 57.0719 30.8956 56.6535 30.7607C56.2352 30.6257 55.7764 30.5582 55.2771 30.5582C54.4585 30.5582 53.714 30.7696 53.0438 31.1925C52.3736 31.6153 51.8406 32.2383 51.4447 33.0614C51.0489 33.8846 50.851 34.8944 50.851 36.0909C50.851 37.2874 51.0512 38.2972 51.4515 39.1204C51.8518 39.9435 52.3938 40.5665 53.0775 40.9893C53.7613 41.4122 54.5304 41.6236 55.3851 41.6236C56.1767 41.6236 56.8739 41.4549 57.4767 41.1175C58.0839 40.7757 58.5562 40.2944 58.8936 39.6737C59.2355 39.0484 59.4064 38.313 59.4064 37.4673L59.9192 37.5753H55.7629V36.0909H61.0257V37.5753C61.0257 38.7133 60.7828 39.7029 60.297 40.544C59.8157 41.3852 59.15 42.0374 58.2998 42.5007C57.4542 42.9595 56.4826 43.1889 55.3851 43.1889C54.1616 43.1889 53.0865 42.901 52.1599 42.3253C51.2378 41.7495 50.5181 40.9309 50.0008 39.8693C49.4881 38.8078 49.2317 37.5483 49.2317 36.0909C49.2317 34.9979 49.3779 34.015 49.6702 33.1424C49.9671 32.2653 50.3854 31.5186 50.9252 30.9023C51.465 30.2861 52.1037 29.8138 52.8414 29.4854C53.5791 29.1571 54.391 28.9929 55.2771 28.9929C56.0058 28.9929 56.685 29.1031 57.3148 29.3235C57.949 29.5394 58.5135 29.8475 59.0083 30.2479C59.5076 30.6437 59.9237 31.1183 60.2565 31.6715C60.5894 32.2203 60.8188 32.8298 60.9447 33.5H59.2175ZM30.6981 52.1818V66H29.0787L21.5489 55.1506H21.414V66H19.7407V52.1818H21.36L28.9168 63.0582H29.0518V52.1818H30.6981ZM45.7054 59.0909C45.7054 60.5483 45.4423 61.8078 44.916 62.8693C44.3897 63.9309 43.6678 64.7495 42.7502 65.3253C41.8326 65.901 40.7845 66.1889 39.606 66.1889C38.4275 66.1889 37.3794 65.901 36.4618 65.3253C35.5442 64.7495 34.8223 63.9309 34.296 62.8693C33.7697 61.8078 33.5066 60.5483 33.5066 59.0909C33.5066 57.6335 33.7697 56.3741 34.296 55.3125C34.8223 54.2509 35.5442 53.4323 36.4618 52.8565C37.3794 52.2808 38.4275 51.9929 39.606 51.9929C40.7845 51.9929 41.8326 52.2808 42.7502 52.8565C43.6678 53.4323 44.3897 54.2509 44.916 55.3125C45.4423 56.3741 45.7054 57.6335 45.7054 59.0909ZM44.0861 59.0909C44.0861 57.8944 43.8859 56.8846 43.4856 56.0614C43.0898 55.2383 42.5523 54.6153 41.873 54.1925C41.1983 53.7696 40.4426 53.5582 39.606 53.5582C38.7694 53.5582 38.0114 53.7696 37.3322 54.1925C36.6575 54.6153 36.12 55.2383 35.7196 56.0614C35.3238 56.8846 35.1259 57.8944 35.1259 59.0909C35.1259 60.2874 35.3238 61.2972 35.7196 62.1204C36.12 62.9435 36.6575 63.5665 37.3322 63.9893C38.0114 64.4122 38.7694 64.6236 39.606 64.6236C40.4426 64.6236 41.1983 64.4122 41.873 63.9893C42.5523 63.5665 43.0898 62.9435 43.4856 62.1204C43.8859 61.2972 44.0861 60.2874 44.0861 59.0909ZM47.1881 53.6662V52.1818H57.5518V53.6662H53.2066V66H51.5333V53.6662H47.1881ZM60.1342 66V52.1818H68.4737V53.6662H61.8075V58.3352H68.0419V59.8196H61.8075V64.5156H68.5817V66H60.1342ZM79.0465 55.6364C78.9656 54.9527 78.6372 54.4219 78.0614 54.044C77.4857 53.6662 76.7795 53.4773 75.9428 53.4773C75.3311 53.4773 74.7958 53.5762 74.337 53.7741C73.8827 53.9721 73.5273 54.2442 73.271 54.5906C73.0191 54.9369 72.8931 55.3305 72.8931 55.7713C72.8931 56.1402 72.9808 56.4573 73.1562 56.7227C73.3362 56.9835 73.5656 57.2017 73.8445 57.3771C74.1233 57.5481 74.4157 57.6897 74.7216 57.8022C75.0275 57.9102 75.3086 57.9979 75.565 58.0653L76.9684 58.4432C77.3282 58.5376 77.7286 58.6681 78.1694 58.8345C78.6147 59.0009 79.0398 59.2281 79.4446 59.516C79.8539 59.7994 80.1913 60.1637 80.4567 60.609C80.7221 61.0543 80.8548 61.6009 80.8548 62.2486C80.8548 62.9953 80.6591 63.67 80.2678 64.2727C79.8809 64.8755 79.3142 65.3545 78.5675 65.7099C77.8253 66.0652 76.9234 66.2429 75.8619 66.2429C74.8723 66.2429 74.0154 66.0832 73.2912 65.7638C72.5715 65.4445 72.0047 64.9992 71.5909 64.4279C71.1816 63.8567 70.9499 63.1932 70.896 62.4375H72.6232C72.6682 62.9593 72.8436 63.3911 73.1495 63.733C73.4599 64.0703 73.8512 64.3222 74.3235 64.4886C74.8003 64.6506 75.3131 64.7315 75.8619 64.7315C76.5006 64.7315 77.0741 64.6281 77.5824 64.4212C78.0907 64.2098 78.4933 63.9174 78.7901 63.544C79.087 63.1662 79.2354 62.7254 79.2354 62.2216C79.2354 61.7628 79.1072 61.3894 78.8509 61.1016C78.5945 60.8137 78.2571 60.5798 77.8388 60.3999C77.4205 60.2199 76.9684 60.0625 76.4826 59.9276L74.7823 59.4418C73.7028 59.1314 72.8481 58.6883 72.2184 58.1126C71.5887 57.5368 71.2738 56.7834 71.2738 55.8523C71.2738 55.0786 71.483 54.4039 71.9013 53.8281C72.3241 53.2479 72.8909 52.7981 73.6016 52.4787C74.3168 52.1548 75.1152 51.9929 75.9968 51.9929C76.8874 51.9929 77.6791 52.1526 78.3718 52.4719C79.0645 52.7868 79.6133 53.2186 80.0181 53.7674C80.4274 54.3162 80.6433 54.9392 80.6658 55.6364H79.0465Z" fill="white"/>
</svg>
